# xmcd
#
# Track frame offsets:
#	182
#	17230
#	30877
#	42437
#	55015
#	68207
#	83102
#	95960
#	108950
#	122185
#	146255
#	159402
#	185797
#	199987
#	216627
#	230790
#	243975
# Disc length: 3451 seconds
# Revision: 7
# Processed by: cddbd v1.5.1PL2 Copyright (c) Steve Scherf et al.
#
# Submitted via: libkcddb 0.21
#
DISCID=f80d7911
DTITLE=Various Artist - Les plus grands moments du Jazz CD1
DYEAR=1900
DGENRE=Jazz
TTITLE0=Duke Ellington and Count Basie - Take the 'A' train - 1962
TTITLE1=Dave Brubeck - Blue rondo a la Turk - 1963
TTITLE2=Miles Davis - Round midnight - 1963
TTITLE3=Billie Holliday - Don't explain - 1973
TTITLE4=Count Basie - Beaver junction - 1951
TTITLE5=Louis Armstrong - Mack the knife - 1963
TTITLE6=Neal Hefti - Girl talk - 1965
TTITLE7=Aretha Franklin - It ain't necessarily so - 1961
TTITLE8=Dave Brubeck - Take five - 1963
TTITLE9=Stan Getz - Ligia (feat. Joao Gilberto) - 1976
TTITLE10=Count Basie - One o'clock jump - 1951
TTITLE11=Stephane Grappelli - Baubles, bangles and beads - 1978
TTITLE12=Woody Herman - Four brothers - 1967
TTITLE13=Lionel Hampton - Blue moon - 1960
TTITLE14=Louis Armstrong - Cabaret - 1967
TTITLE15=Benny Goodman - Body and soul - 1945
TTITLE16=Miles Davis - Summertime (with Gil Evans and His Orchestra) - 1959
EXTD=
EXTT0=
EXTT1=
EXTT2=
EXTT3=
EXTT4=
EXTT5=
EXTT6=
EXTT7=
EXTT8=
EXTT9=
EXTT10=
EXTT11=
EXTT12=
EXTT13=
EXTT14=
EXTT15=
EXTT16=
PLAYORDER=
